<svg width="100" height="100" viewBox="0 0 100 100" fill="none" xmlns="http://www.w3.org/2000/svg">
<circle cx="50" cy="50" r="50" fill="#212121" fill-opacity="0.15"/>
<path fill-rule="evenodd" clip-rule="evenodd" d="M47.5 39C46.3954 39 45.5 39.8954 45.5 41V42H43C39.6863 42 37 44.6863 37 48V55C37 58.3137 39.6863 61 43 61H57C60.3137 61 63 58.3137 63 55V48C63 44.6863 60.3137 42 57 42H54.5V41C54.5 39.8954 53.6046 39 52.5 39H47.5ZM43.626 40C44.0701 38.2748 45.6362 37 47.5 37H52.5C54.3638 37 55.9299 38.2748 56.374 40H57C61.4183 40 65 43.5817 65 48V55C65 59.4183 61.4183 63 57 63H43C38.5817 63 35 59.4183 35 55V48C35 43.5817 38.5817 40 43 40H43.626ZM50 48C48.3431 48 47 49.3431 47 51C47 52.6569 48.3431 54 50 54C51.6569 54 53 52.6569 53 51C53 49.3431 51.6569 48 50 48ZM45 51C45 48.2386 47.2386 46 50 46C52.7614 46 55 48.2386 55 51C55 53.7614 52.7614 56 50 56C47.2386 56 45 53.7614 45 51Z" fill="white"/>
</svg>
